<mxfile host="app.diagrams.net" modified="2023-05-05T03:14:09.900Z" agent="Mozilla/5.0 (Windows NT 10.0; Win64; x64) AppleWebKit/537.36 (KHTML, like Gecko) Chrome/112.0.0.0 Safari/537.36 Edg/112.0.1722.48" etag="asGzSbS7cGLgzKRDF0Jp" version="21.2.9" type="github">
  <diagram name="Page-1" id="Ojy8R2TO2T7RezmX0e7g">
    <mxGraphModel dx="993" dy="581" grid="1" gridSize="10" guides="1" tooltips="1" connect="1" arrows="1" fold="1" page="1" pageScale="1" pageWidth="850" pageHeight="1100" math="0" shadow="0">
      <root>
        <mxCell id="0" />
        <mxCell id="1" parent="0" />
        <mxCell id="TW3V0zCOBjhZnKt817AQ-6" value="" style="edgeStyle=orthogonalEdgeStyle;rounded=0;orthogonalLoop=1;jettySize=auto;html=1;" parent="1" source="TW3V0zCOBjhZnKt817AQ-1" target="TW3V0zCOBjhZnKt817AQ-3" edge="1">
          <mxGeometry relative="1" as="geometry" />
        </mxCell>
        <mxCell id="TW3V0zCOBjhZnKt817AQ-1" value="&lt;i&gt;Input Data&lt;/i&gt;" style="shape=parallelogram;perimeter=parallelogramPerimeter;whiteSpace=wrap;html=1;fixedSize=1;" parent="1" vertex="1">
          <mxGeometry x="70" y="170" width="120" height="60" as="geometry" />
        </mxCell>
        <mxCell id="TW3V0zCOBjhZnKt817AQ-7" value="" style="edgeStyle=orthogonalEdgeStyle;rounded=0;orthogonalLoop=1;jettySize=auto;html=1;" parent="1" source="TW3V0zCOBjhZnKt817AQ-2" target="TW3V0zCOBjhZnKt817AQ-5" edge="1">
          <mxGeometry relative="1" as="geometry" />
        </mxCell>
        <mxCell id="TW3V0zCOBjhZnKt817AQ-2" value="Data Pre-processing" style="swimlane;whiteSpace=wrap;html=1;" parent="1" vertex="1">
          <mxGeometry x="270" y="150" width="200" height="90" as="geometry" />
        </mxCell>
        <mxCell id="TW3V0zCOBjhZnKt817AQ-3" value="Clean and preprocess the data&amp;nbsp;&lt;br&gt;to make it suitable for analysis" style="text;html=1;align=center;verticalAlign=middle;resizable=0;points=[];autosize=1;strokeColor=none;fillColor=none;" parent="TW3V0zCOBjhZnKt817AQ-2" vertex="1">
          <mxGeometry x="5" y="25" width="190" height="40" as="geometry" />
        </mxCell>
        <mxCell id="TW3V0zCOBjhZnKt817AQ-10" value="" style="edgeStyle=orthogonalEdgeStyle;rounded=0;orthogonalLoop=1;jettySize=auto;html=1;entryX=0.5;entryY=0;entryDx=0;entryDy=0;" parent="1" source="TW3V0zCOBjhZnKt817AQ-4" target="TW3V0zCOBjhZnKt817AQ-8" edge="1">
          <mxGeometry relative="1" as="geometry" />
        </mxCell>
        <mxCell id="TW3V0zCOBjhZnKt817AQ-4" value="Emotion/Mood Detection" style="swimlane;whiteSpace=wrap;html=1;" parent="1" vertex="1">
          <mxGeometry x="570" y="170" width="200" height="100" as="geometry" />
        </mxCell>
        <mxCell id="TW3V0zCOBjhZnKt817AQ-5" value="It is based on TextBlob Module&lt;br&gt;which uses a lexicon-based &lt;br&gt;approach" style="text;html=1;align=center;verticalAlign=middle;resizable=0;points=[];autosize=1;strokeColor=none;fillColor=none;" parent="1" vertex="1">
          <mxGeometry x="565" y="200" width="190" height="60" as="geometry" />
        </mxCell>
        <mxCell id="TW3V0zCOBjhZnKt817AQ-8" value="Suggestion Systems" style="swimlane;whiteSpace=wrap;html=1;" parent="1" vertex="1">
          <mxGeometry x="570" y="350" width="205" height="120" as="geometry" />
        </mxCell>
        <mxCell id="TW3V0zCOBjhZnKt817AQ-9" value="Generating Suggestion&lt;br&gt;systems (Music, Movie, Book &amp;amp; Art)&lt;br&gt;based on the emotion detection&lt;br&gt;result of the user. This system uses&lt;br&gt;either Collaborative filtering&lt;br&gt;or Matrix Factorization." style="text;html=1;align=center;verticalAlign=middle;resizable=0;points=[];autosize=1;strokeColor=none;fillColor=none;" parent="TW3V0zCOBjhZnKt817AQ-8" vertex="1">
          <mxGeometry x="-5" y="20" width="210" height="100" as="geometry" />
        </mxCell>
        <mxCell id="TW3V0zCOBjhZnKt817AQ-20" value="" style="edgeStyle=orthogonalEdgeStyle;rounded=0;orthogonalLoop=1;jettySize=auto;html=1;" parent="1" source="TW3V0zCOBjhZnKt817AQ-19" target="TW3V0zCOBjhZnKt817AQ-9" edge="1">
          <mxGeometry relative="1" as="geometry" />
        </mxCell>
        <mxCell id="TW3V0zCOBjhZnKt817AQ-19" value="&lt;b&gt;Datasets&lt;/b&gt;&lt;br&gt;Music - KaggleMusicMoodFinal&lt;br&gt;Size: 1,50,687&lt;br&gt;Movies - IMDB URL&lt;br&gt;Books - EmotionsBookClassification&lt;br&gt;Size: 6,567&lt;br&gt;Art - WikiArt-annotations&lt;br&gt;Size: 12,686" style="shape=cylinder3;whiteSpace=wrap;html=1;boundedLbl=1;backgroundOutline=1;size=15;" parent="1" vertex="1">
          <mxGeometry x="520" y="540" width="240" height="160" as="geometry" />
        </mxCell>
      </root>
    </mxGraphModel>
  </diagram>
</mxfile>
